<svg xmlns="http://www.w3.org/2000/svg" viewBox="0 0 36 36"><defs><style>.cls-1{fill:#fff;}</style></defs><title>icon-dribbble</title><g id="Layer_2" data-name="Layer 2"><g id="Layer_1-2" data-name="Layer 1"><path class="cls-1" d="M18,36A18,18,0,1,1,36,18,18,18,0,0,1,18,36Zm.42-20.67A56.44,56.44,0,0,1,2.65,17.51a3.39,3.39,0,0,0,0,.49A15.35,15.35,0,0,0,6.56,28.27c4.19-7.48,12.49-10.15,12.49-10.15.21-.07.42-.12.61-.19C19.29,17.06,18.87,16.2,18.42,15.33Zm-7-11.23A15.4,15.4,0,0,0,3,14.84,58.16,58.16,0,0,0,17.16,13,92.36,92.36,0,0,0,11.44,4.1Zm9.28,16.38-.1,0S11.51,23.7,8.56,30.12c-.14-.12-.35-.26-.35-.26A15.39,15.39,0,0,0,24,32.16,64.93,64.93,0,0,0,20.72,20.48ZM14.27,3.09a.08.08,0,0,1,0,0S14.3,3.07,14.27,3.09ZM18,2.62a15.61,15.61,0,0,0-3.63.45,75.49,75.49,0,0,1,5.76,9c5.79-2.16,8-5.48,8-5.56A15.26,15.26,0,0,0,18,2.62Zm11.88,5.6s-2.51,3.61-8.58,6.09c.35.73.7,1.48,1,2.23.12.26.21.54.33.8a36,36,0,0,1,10.71.49A15.42,15.42,0,0,0,29.88,8.23ZM23.6,19.76a68.56,68.56,0,0,1,3,11,15.43,15.43,0,0,0,6.59-10.31A22.8,22.8,0,0,0,23.6,19.76Z"/></g></g></svg>