<svg xmlns="http://www.w3.org/2000/svg" viewBox="0 0 35.16 35.16"><defs><style>.cls-1{fill:#fff;}</style></defs><title>icon-codepen</title><g id="Layer_2" data-name="Layer 2"><g id="Layer_1-2" data-name="Layer 1"><path class="cls-1" d="M35.16,22.94a1.54,1.54,0,0,1-.67,1.26L18.43,34.91a1.52,1.52,0,0,1-1.69,0L.67,24.2A1.54,1.54,0,0,1,0,22.94V12.22A1.54,1.54,0,0,1,.67,11L16.74.25a1.52,1.52,0,0,1,1.69,0L34.5,11a1.54,1.54,0,0,1,.67,1.26ZM6.81,17.58,3,15.05v5.06Zm9.26-6.2v-7L4.24,12.22l5.28,3.53Zm0,19.45v-7L9.52,19.41,4.24,22.94Zm6.85-13.25L17.58,14l-5.34,3.57,5.34,3.57Zm8-5.36L19.09,4.34v7l6.55,4.38Zm0,10.71-5.28-3.53-6.55,4.38v7Zm1.22-2.83V15.05l-3.79,2.53Z"/></g></g></svg>