<svg xmlns="http://www.w3.org/2000/svg" viewBox="0 0 36 36"><defs><style>.cls-1{fill:#fff;}</style></defs><title>icon-linked-in</title><g id="Layer_2" data-name="Layer 2"><g id="Layer_1-2" data-name="Layer 1"><path class="cls-1" d="M36,29.25A6.75,6.75,0,0,1,29.25,36H6.75A6.75,6.75,0,0,1,0,29.25V6.75A6.75,6.75,0,0,1,6.75,0h22.5A6.75,6.75,0,0,1,36,6.75ZM8.3,6a2.82,2.82,0,1,0-.07,5.63h0A2.82,2.82,0,1,0,8.3,6ZM11,30.14V13.88H5.56V30.14Zm19.48,0V20.81c0-5-2.67-7.31-6.23-7.31a5.35,5.35,0,0,0-4.9,2.74h0V13.88H13.94s.07,1.52,0,16.26h5.42V21a3.82,3.82,0,0,1,.16-1.31,3,3,0,0,1,2.79-2c1.94,0,2.72,1.48,2.72,3.68v8.69Z"/></g></g></svg>